# xmcd
#
# Track frame offsets:
#	150
#	10617
#	21184
#	33924
#	45110
#	58066
#	67542
#	78929
#	89822
#	101042
#
# Disc length: 1497 seconds
#
# Revision: 1
# Processed by: cddbd v1.5.2PL0 Copyright (c) Steve Scherf et al.
# Submitted via: EasyCDDAExtractor 7.0.3.1
#
DISCID=6a05d70a
DTITLE=Connie Smith - Queen of the Broken Hearts
DYEAR=2006
DGENRE=Country
TTITLE0=Once A Day
TTITLE1=Ain't Had No Lovin'
TTITLE2=The Hurtin's All Over
TTITLE3=Nobody But A Fool ( Would Love You )
TTITLE4=I Never Once Stopped Loving You
TTITLE5=Cincinnati, Ohio
TTITLE6=If I Talk To Him
TTITLE7=Just For What I Am
TTITLE8=Then and Only Then
TTITLE9=Just One Time
EXTD=
EXTT0=
EXTT1=
EXTT2=
EXTT3=
EXTT4=
EXTT5=
EXTT6=
EXTT7=
EXTT8=
EXTT9=
PLAYORDER=
